<?xml version="1.0" standalone="no"?>
<svg version="1.0" xmlns="http://www.w3.org/2000/svg"
 width="67.000000pt" height="67.000000pt" viewBox="0 0 67.000000 67.000000"
 preserveAspectRatio="xMidYMid meet">
<g transform="translate(0.000000,67.000000) scale(0.100000,-0.100000)"
fill="#0046a8" stroke="none">
<path d="M210 628 c-75 -29 -161 -115 -184 -185 -22 -66 -22 -149 -1 -213 21
-63 92 -143 159 -178 45 -24 62 -27 146 -27 84 0 101 3 147 27 112 60 173 155
173 274 0 101 -22 157 -89 225 -95 96 -226 125 -351 77z m108 -300 l2 -178
-55 0 -55 0 0 55 0 55 -35 0 c-86 0 -145 53 -145 130 0 91 51 120 205 117 l80
-2 3 -177z m255 161 c53 -24 73 -100 41 -160 -18 -35 -82 -68 -131 -69 l-33 0
0 -55 0 -55 -55 0 -55 0 0 181 0 182 103 -5 c56 -3 115 -12 130 -19z"/>
<path d="M170 417 c-46 -23 -30 -77 22 -77 14 0 18 8 18 39 0 47 -8 54 -40 38z"/>
<path d="M450 384 c0 -36 3 -44 19 -44 48 0 55 69 9 81 -27 7 -28 6 -28 -37z"/>
</g>
</svg>
