<svg fill="#ff0000" height="800px" width="800px" version="1.1" id="Layer_1" xmlns="http://www.w3.org/2000/svg" xmlns:xlink="http://www.w3.org/1999/xlink" viewBox="0 0 512 512" xml:space="preserve" data-originalfillcolor="#000000" transform="rotate(0) scale(1, 1)">
<g>
	<g>
		<circle cx="349.091" cy="151.273" r="11.636"/>
	</g>
</g>
<g>
	<g>
		<circle cx="384" cy="151.273" r="11.636"/>
	</g>
</g>
<g>
	<g>
		<circle cx="349.091" cy="209.455" r="11.636"/>
	</g>
</g>
<g>
	<g>
		<circle cx="384" cy="209.455" r="11.636"/>
	</g>
</g>
<g>
	<g>
		<circle cx="349.091" cy="267.636" r="11.636"/>
	</g>
</g>
<g>
	<g>
		<circle cx="384" cy="267.636" r="11.636"/>
	</g>
</g>
<g>
	<g>
		<path d="M256,81.455H128c-6.982,0-11.636,4.655-11.636,11.636c0,6.982,4.655,11.636,11.636,11.636h128&#xA;&#9;&#9;&#9;c6.982,0,11.636-4.655,11.636-11.636C267.636,86.109,262.982,81.455,256,81.455z"/>
	</g>
</g>
<g>
	<g>
		<path d="M256,139.636H128c-6.982,0-11.636,4.655-11.636,11.636c0,6.982,4.655,11.636,11.636,11.636h128&#xA;&#9;&#9;&#9;c6.982,0,11.636-4.655,11.636-11.636C267.636,144.291,262.982,139.636,256,139.636z"/>
	</g>
</g>
<g>
	<g>
		<path d="M256,197.818H128c-6.982,0-11.636,4.655-11.636,11.636c0,6.982,4.655,11.636,11.636,11.636h128&#xA;&#9;&#9;&#9;c6.982,0,11.636-4.655,11.636-11.636C267.636,202.473,262.982,197.818,256,197.818z"/>
	</g>
</g>
<g>
	<g>
		<path d="M256,256H128c-6.982,0-11.636,4.655-11.636,11.636s4.655,11.636,11.636,11.636h128c6.982,0,11.636-4.655,11.636-11.636&#xA;&#9;&#9;&#9;S262.982,256,256,256z"/>
	</g>
</g>
<g>
	<g>
		<path d="M407.273,0h-58.182c-6.982,0-11.636,4.655-11.636,11.636s4.655,11.636,11.636,11.636h58.182&#xA;&#9;&#9;&#9;c6.982,0,11.636,4.655,11.636,11.636v453.818H93.091V34.909c0-6.982,4.655-11.636,11.636-11.636h186.182v430.545&#xA;&#9;&#9;&#9;c0,6.982,4.655,11.636,11.636,11.636s11.636-4.655,11.636-11.636V11.636C314.182,4.655,309.527,0,302.545,0H104.727&#xA;&#9;&#9;&#9;C84.945,0,69.818,15.127,69.818,34.909v465.455c0,6.982,4.655,11.636,11.636,11.636h349.091c6.982,0,11.636-4.655,11.636-11.636&#xA;&#9;&#9;&#9;V34.909C442.182,15.127,427.055,0,407.273,0z"/>
	</g>
</g>
<g>
	<g>
		<path d="M384,81.455h-34.909c-6.982,0-11.636,4.655-11.636,11.636c0,6.982,4.655,11.636,11.636,11.636H384&#xA;&#9;&#9;&#9;c6.982,0,11.636-4.655,11.636-11.636C395.636,86.109,390.982,81.455,384,81.455z"/>
	</g>
</g>
<g>
	<g>
		<path d="M256,372.364H128c-6.982,0-11.636,4.655-11.636,11.636v58.182c0,6.982,4.655,11.636,11.636,11.636h128&#xA;&#9;&#9;&#9;c6.982,0,11.636-4.655,11.636-11.636V384C267.636,377.018,262.982,372.364,256,372.364z M244.364,430.545H139.636v-34.909h104.727&#xA;&#9;&#9;&#9;V430.545z"/>
	</g>
</g>
</svg>